<svg width="294" height="129" viewBox="0 0 294 129" fill="none" xmlns="http://www.w3.org/2000/svg">
<path d="M1.49012e-07 102.8C1.49012e-07 97.0667 1.46667 92.2 4.4 88.2C7.46667 84.2 11.6 81.1333 16.8 79C17.4667 78.7333 17.9333 78.9333 18.2 79.6C18.4667 80.2667 18.4 80.8667 18 81.4C15.6 82.7333 13.6667 84.8 12.2 87.6C10.8667 90.4 10.2 93.8 10.2 97.8C10.2 105.933 13.2 112.333 19.2 117C25.2 121.667 33 124 42.6 124C55.1333 124 64.0667 121.533 69.4 116.6C74.8667 111.667 77.6 105.2 77.6 97.2C77.6 89.7333 76.0667 83.2 73 77.6C69.9333 71.8667 66.5333 66.5333 62.8 61.6C59.2 56.5333 55.8667 51.4667 52.8 46.4C49.7333 41.3333 48.2 35.6 48.2 29.2C48.2 25.4667 49 21.8667 50.6 18.4C52.3333 14.9333 54.6667 11.8667 57.6 9.19999C60.6667 6.4 64.2667 4.2 68.4 2.59999C72.5333 0.999991 77.0667 0.199989 82 0.199989C88.8 0.199989 94.1333 1.66666 98 4.59999C102 7.4 104 10.8 104 14.8C104 17.0667 103 19.8667 101 23.2C99.1333 26.4 97.2 29.2 95.2 31.6C94.6667 31.8667 94.2 31.8 93.8 31.4C93.4 31 93.2667 30.5333 93.4 30C94.0667 28.9333 94.6 27.6667 95 26.2C95.5333 24.6 95.8 22.8667 95.8 21C95.8 18.8667 95.3333 16.8667 94.4 15C93.4667 13 92.1333 11.3333 90.4 9.99999C88.6667 8.53333 86.6667 7.4 84.4 6.59999C82.1333 5.66666 79.7333 5.2 77.2 5.2C70.5333 5.2 65.6667 6.8 62.6 9.99999C59.5333 13.2 58 17.3333 58 22.4C58 26.4 58.7333 30.2 60.2 33.8C61.8 37.2667 63.7333 40.8 66 44.4C68.2667 47.8667 70.6667 51.4 73.2 55C75.8667 58.4667 78.3333 62.1333 80.6 66C82.8667 69.7333 84.7333 73.7333 86.2 78C87.8 82.1333 88.6 86.6667 88.6 91.6C88.6 96.8 87.2667 101.667 84.6 106.2C82.0667 110.733 78.5333 114.733 74 118.2C69.4667 121.533 64.2 124.2 58.2 126.2C52.2 128.067 45.7333 129 38.8 129C26.1333 129 16.4667 126.533 9.8 121.6C3.26667 116.667 1.49012e-07 110.4 1.49012e-07 102.8ZM292.739 12C293.139 12.2667 293.339 12.6667 293.339 13.2C293.339 13.6 292.939 14.2 292.139 15C287.739 19.8 283.806 25.3333 280.339 31.6C276.872 37.7333 273.939 44.4667 271.539 51.8C269.139 59.1333 267.272 66.8667 265.939 75C264.606 83.1333 263.939 91.4667 263.939 100C263.939 106.4 264.672 111.4 266.139 115C267.739 118.467 270.472 120.2 274.339 120.2C279.672 120.2 284.739 116.467 289.539 109C289.939 108.733 290.339 108.733 290.739 109C291.139 109.267 291.272 109.667 291.139 110.2C287.672 115.8 283.806 120.333 279.539 123.8C275.406 127.267 271.539 129 267.939 129C262.606 129 258.539 126.933 255.739 122.8C253.072 118.667 251.739 112.8 251.739 105.2C251.739 94.5333 252.939 83.6667 255.339 72.6C249.072 72.6 242.872 72.6667 236.739 72.8C230.739 72.9333 224.872 73.1333 219.139 73.4C214.739 78.0667 210.472 82.4667 206.339 86.6C202.339 90.7333 198.406 94.5333 194.539 98C183.872 107.733 172.872 115.333 161.539 120.8C150.339 126.267 138.006 129 124.539 129C117.339 129 111.539 127.4 107.139 124.2C102.872 121 100.006 116.933 98.5391 112C97.2057 107.067 97.2724 101.667 98.7391 95.8C100.206 89.9333 103.139 84.2667 107.539 78.8C107.939 78.5333 108.406 78.6 108.939 79C109.472 79.2667 109.672 79.8667 109.539 80.8C106.472 84.1333 104.739 88 104.339 92.4C104.072 96.6667 105.006 100.733 107.139 104.6C109.406 108.333 112.872 111.533 117.539 114.2C122.206 116.733 128.072 118 135.139 118C146.472 118 157.072 115.667 166.939 111C176.939 106.333 186.339 100 195.139 92C198.206 89.3333 201.272 86.4667 204.339 83.4C207.406 80.3333 210.606 77.1333 213.939 73.8C209.272 74.0667 204.872 74.4 200.739 74.8C196.606 75.0667 192.739 75.4667 189.139 76C188.472 75.8667 188.339 75.5333 188.739 75C189.139 74.4667 189.739 73.9333 190.539 73.4C191.339 72.7333 192.272 72.2 193.339 71.8C194.539 71.2667 195.672 70.9333 196.739 70.8C198.472 70.6667 201.139 70.6 204.739 70.6C208.472 70.4667 212.672 70.3333 217.339 70.2C224.806 62.4667 233.072 54.1333 242.139 45.2C251.339 36.1333 262.206 26.6667 274.739 16.8C265.806 13.8667 256.539 11.4667 246.939 9.6C237.472 7.59999 228.339 6.59999 219.539 6.59999C209.539 6.59999 201.339 9.39999 194.939 15C188.539 20.4667 184.606 29.1333 183.139 41C182.872 41.6667 182.472 41.9333 181.939 41.8C181.539 41.6667 181.272 41.2667 181.139 40.6C182.739 27.5333 187.606 17.5333 195.739 10.6C203.872 3.66666 214.406 0.199989 227.339 0.199989C232.806 0.199989 238.539 0.599992 244.539 1.4C250.539 2.06666 256.406 3 262.139 4.2C268.006 5.26666 273.539 6.53332 278.739 8C284.072 9.33333 288.739 10.6667 292.739 12ZM255.939 70C258.072 60.4 261.072 51.0667 264.939 42C268.806 32.9333 273.539 24.6 279.139 17C267.406 26.4667 256.939 35.6667 247.739 44.6C238.539 53.5333 230.072 62.0667 222.339 70.2C228.739 70.0667 235.006 70 241.139 70C247.406 70 252.339 70 255.939 70Z" fill="white"/>
</svg>
