<svg width="738" height="152" viewBox="0 0 738 152" fill="none" xmlns="http://www.w3.org/2000/svg">
<path d="M1.49012e-07 125.8C1.49012e-07 120.067 1.46667 115.2 4.4 111.2C7.46667 107.2 11.6 104.133 16.8 102C17.4667 101.733 17.9333 101.933 18.2 102.6C18.4667 103.267 18.4 103.867 18 104.4C15.6 105.733 13.6667 107.8 12.2 110.6C10.8667 113.4 10.2 116.8 10.2 120.8C10.2 128.933 13.2 135.333 19.2 140C25.2 144.667 33 147 42.6 147C55.1333 147 64.0667 144.533 69.4 139.6C74.8667 134.667 77.6 128.2 77.6 120.2C77.6 112.733 76.0667 106.2 73 100.6C69.9333 94.8667 66.5333 89.5333 62.8 84.6C59.2 79.5333 55.8667 74.4667 52.8 69.4C49.7333 64.3333 48.2 58.6 48.2 52.2C48.2 48.4667 49 44.8667 50.6 41.4C52.3333 37.9333 54.6667 34.8667 57.6 32.2C60.6667 29.4 64.2667 27.2 68.4 25.6C72.5333 24 77.0667 23.2 82 23.2C88.8 23.2 94.1333 24.6667 98 27.6C102 30.4 104 33.8 104 37.8C104 40.0667 103 42.8667 101 46.2C99.1333 49.4 97.2 52.2 95.2 54.6C94.6667 54.8667 94.2 54.8 93.8 54.4C93.4 54 93.2667 53.5333 93.4 53C94.0667 51.9333 94.6 50.6667 95 49.2C95.5333 47.6 95.8 45.8667 95.8 44C95.8 41.8667 95.3333 39.8667 94.4 38C93.4667 36 92.1333 34.3333 90.4 33C88.6667 31.5333 86.6667 30.4 84.4 29.6C82.1333 28.6667 79.7333 28.2 77.2 28.2C70.5333 28.2 65.6667 29.8 62.6 33C59.5333 36.2 58 40.3333 58 45.4C58 49.4 58.7333 53.2 60.2 56.8C61.8 60.2667 63.7333 63.8 66 67.4C68.2667 70.8667 70.6667 74.4 73.2 78C75.8667 81.4667 78.3333 85.1333 80.6 89C82.8667 92.7333 84.7333 96.7333 86.2 101C87.8 105.133 88.6 109.667 88.6 114.6C88.6 119.8 87.2667 124.667 84.6 129.2C82.0667 133.733 78.5333 137.733 74 141.2C69.4667 144.533 64.2 147.2 58.2 149.2C52.2 151.067 45.7333 152 38.8 152C26.1333 152 16.4667 149.533 9.8 144.6C3.26667 139.667 1.49012e-07 133.4 1.49012e-07 125.8ZM93.3391 150.2C99.3391 127.267 106.206 106.6 113.939 88.2C121.806 69.8 130.072 54.1333 138.739 41.2C147.406 28.2667 156.139 18.3333 164.939 11.4C173.872 4.33333 182.339 0.799992 190.339 0.799992C193.672 0.799992 196.272 1.59999 198.139 3.2C200.139 4.66666 201.472 6.53333 202.139 8.8C202.939 10.9333 203.072 13.2667 202.539 15.8C202.006 18.3333 201.006 20.6 199.539 22.6C199.139 23 198.739 23.1333 198.339 23C197.939 22.8667 197.739 22.5333 197.739 22C198.406 19.3333 197.672 16.8 195.539 14.4C193.406 12 190.006 10.8 185.339 10.8C178.139 10.8 171.272 12.7333 164.739 16.6C158.339 20.4667 152.072 26.9333 145.939 36C139.806 44.9333 133.806 56.8667 127.939 71.8C122.072 86.6 116.072 105.067 109.939 127.2C111.939 123.6 114.206 120.2 116.739 117C119.406 113.8 122.272 111 125.339 108.6C128.406 106.2 131.672 104.333 135.139 103C138.606 101.533 142.206 100.8 145.939 100.8C147.539 100.8 148.672 101.2 149.339 102C150.139 102.8 150.539 103.733 150.539 104.8C150.539 106.533 149.939 108.467 148.739 110.6C145.939 115.533 143.672 120.6 141.939 125.8C140.206 131 139.339 135.733 139.339 140C139.339 141.867 139.539 143.4 139.939 144.6C140.339 145.8 141.072 146.4 142.139 146.4C143.472 146.4 144.939 145.733 146.539 144.4C148.139 142.933 149.472 141.333 150.539 139.6C150.939 139.333 151.339 139.4 151.739 139.8C152.139 140.067 152.272 140.4 152.139 140.8C150.406 143.733 147.939 146.333 144.739 148.6C141.672 150.867 138.872 152 136.339 152C134.072 152 132.206 151.4 130.739 150.2C129.272 148.867 128.539 146.667 128.539 143.6C128.539 141.2 128.739 138.667 129.139 136C129.672 133.2 130.272 130.467 130.939 127.8C131.739 125.133 132.606 122.533 133.539 120C134.606 117.333 135.739 114.933 136.939 112.8C137.606 111.2 137.939 110.067 137.939 109.4C137.939 108.2 137.272 107.6 135.939 107.6C133.406 107.6 130.672 108.6 127.739 110.6C124.806 112.467 121.939 115.2 119.139 118.8C116.339 122.267 113.606 126.467 110.939 131.4C108.406 136.333 106.206 141.8 104.339 147.8C104.072 148.733 103.006 149.667 101.139 150.6C99.2724 151.533 97.2057 152 94.9391 152C93.6057 152 93.0724 151.4 93.3391 150.2ZM210.183 139.4C210.449 139.133 210.783 139.133 211.183 139.4C211.583 139.667 211.716 140.067 211.583 140.6C209.183 144.067 206.516 146.867 203.583 149C200.649 151 197.849 152 195.183 152C192.116 152 190.116 149.867 189.183 145.6C188.383 141.2 188.849 136 190.583 130C186.983 135.733 183.049 140.667 178.783 144.8C174.649 148.8 170.249 151.2 165.583 152C162.383 152 159.916 150.533 158.183 147.6C156.449 144.667 155.583 141.267 155.583 137.4C155.583 133 156.649 128.667 158.783 124.4C160.916 120 163.716 116.067 167.183 112.6C170.783 109.133 174.716 106.333 178.983 104.2C183.383 101.933 187.783 100.8 192.183 100.8C196.849 100.8 200.516 101.933 203.183 104.2C204.516 103.267 206.183 102.467 208.183 101.8C210.316 101.133 212.183 100.8 213.783 100.8C214.316 100.8 214.583 101.133 214.583 101.8C211.516 105.533 208.849 109.667 206.583 114.2C204.449 118.6 202.783 122.867 201.583 127C200.383 131 199.649 134.6 199.383 137.8C199.116 141 199.383 143.2 200.183 144.4C200.849 145.2 201.983 145.467 203.583 145.2C205.183 144.8 207.383 142.867 210.183 139.4ZM171.783 144.6C173.383 144.6 175.316 143.6 177.583 141.6C179.983 139.6 182.449 136.933 184.983 133.6C187.516 130.267 189.983 126.533 192.383 122.4C194.916 118.267 197.116 114.067 198.983 109.8C198.449 108.067 197.183 106.667 195.183 105.6C193.316 104.533 191.116 104 188.583 104C185.516 104 182.649 104.8 179.983 106.4C177.316 107.867 174.983 110 172.983 112.8C171.116 115.467 169.583 118.733 168.383 122.6C167.316 126.333 166.783 130.467 166.783 135C166.783 137.933 167.249 140.267 168.183 142C169.249 143.733 170.449 144.6 171.783 144.6ZM271.613 139.4C271.879 139.133 272.213 139.133 272.613 139.4C273.013 139.667 273.146 140.067 273.013 140.6C270.613 144.067 267.946 146.867 265.013 149C262.079 151 259.279 152 256.613 152C253.546 152 251.546 149.867 250.613 145.6C249.813 141.2 250.279 136 252.013 130C248.413 135.733 244.479 140.667 240.212 144.8C236.079 148.8 231.679 151.2 227.013 152C223.813 152 221.346 150.533 219.613 147.6C217.879 144.667 217.013 141.267 217.013 137.4C217.013 133 218.079 128.667 220.213 124.4C222.346 120 225.146 116.067 228.613 112.6C232.213 109.133 236.146 106.333 240.413 104.2C244.813 101.933 249.213 100.8 253.613 100.8C258.279 100.8 261.946 101.933 264.613 104.2C265.946 103.267 267.613 102.467 269.612 101.8C271.746 101.133 273.613 100.8 275.213 100.8C275.746 100.8 276.013 101.133 276.013 101.8C272.946 105.533 270.279 109.667 268.013 114.2C265.879 118.6 264.213 122.867 263.013 127C261.813 131 261.079 134.6 260.812 137.8C260.546 141 260.813 143.2 261.613 144.4C262.279 145.2 263.413 145.467 265.013 145.2C266.613 144.8 268.813 142.867 271.613 139.4ZM233.213 144.6C234.813 144.6 236.746 143.6 239.013 141.6C241.413 139.6 243.879 136.933 246.413 133.6C248.946 130.267 251.413 126.533 253.813 122.4C256.346 118.267 258.546 114.067 260.413 109.8C259.879 108.067 258.613 106.667 256.613 105.6C254.746 104.533 252.546 104 250.013 104C246.946 104 244.079 104.8 241.413 106.4C238.746 107.867 236.413 110 234.413 112.8C232.546 115.467 231.013 118.733 229.813 122.6C228.746 126.333 228.213 130.467 228.213 135C228.213 137.933 228.679 140.267 229.613 142C230.679 143.733 231.879 144.6 233.213 144.6ZM335.042 138C335.309 137.733 335.642 137.8 336.042 138.2C336.442 138.467 336.576 138.867 336.442 139.4C334.042 142.733 331.242 145.667 328.042 148.2C324.976 150.733 321.909 152 318.842 152C316.576 152 314.776 151.267 313.442 149.8C312.242 148.333 311.642 146.4 311.642 144C311.642 139.333 312.442 134.267 314.042 128.8C315.776 123.333 318.042 117.8 320.842 112.2C321.242 111.267 321.442 110.267 321.442 109.2C321.442 107.867 320.842 107.2 319.642 107.2C314.709 107.2 309.242 110.6 303.242 117.4C297.242 124.067 291.709 134.733 286.642 149.4C286.509 149.8 286.042 150.2 285.242 150.6C284.576 150.867 283.776 151.133 282.842 151.4C281.909 151.533 280.976 151.667 280.042 151.8C279.109 151.933 278.376 152 277.842 152C277.176 152 276.642 151.867 276.242 151.6C275.976 151.333 275.976 150.867 276.242 150.2C278.509 144.467 280.776 138.2 283.042 131.4C285.442 124.467 287.509 117.533 289.242 110.6C289.642 109.267 289.709 108.333 289.442 107.8C289.176 107.133 288.709 106.8 288.042 106.8C286.576 106.8 285.176 107.467 283.842 108.8C282.509 110 281.309 111.333 280.242 112.8C279.842 113.067 279.442 113 279.042 112.6C278.776 112.2 278.709 111.8 278.842 111.4C279.509 110.467 280.376 109.4 281.442 108.2C282.642 107 283.976 105.867 285.442 104.8C286.909 103.6 288.442 102.667 290.042 102C291.642 101.2 293.242 100.8 294.842 100.8C297.109 100.8 298.576 101.533 299.242 103C300.042 104.333 300.242 106 299.842 108C299.176 110.933 298.442 113.733 297.642 116.4C296.976 118.933 296.109 121.8 295.042 125C296.642 122.067 298.576 119.2 300.842 116.4C303.242 113.467 305.842 110.867 308.642 108.6C311.576 106.2 314.709 104.333 318.042 103C321.376 101.533 324.909 100.8 328.642 100.8C330.242 100.8 331.442 101.2 332.242 102C333.176 102.8 333.642 103.733 333.642 104.8C333.642 106.667 333.176 108.333 332.242 109.8C329.442 114.867 327.042 120.133 325.042 125.6C323.176 130.933 322.242 135.733 322.242 140C322.242 143.467 323.376 145.2 325.642 145.2C327.109 145.2 328.576 144.6 330.042 143.4C331.509 142.2 333.176 140.4 335.042 138ZM562.973 35C563.373 35.2667 563.573 35.6667 563.573 36.2C563.573 36.6 563.173 37.2 562.373 38C557.973 42.8 554.04 48.3333 550.573 54.6C547.107 60.7333 544.173 67.4667 541.773 74.8C539.373 82.1333 537.507 89.8667 536.173 98C534.84 106.133 534.173 114.467 534.173 123C534.173 129.4 534.907 134.4 536.373 138C537.973 141.467 540.707 143.2 544.573 143.2C549.907 143.2 554.973 139.467 559.773 132C560.173 131.733 560.573 131.733 560.973 132C561.373 132.267 561.507 132.667 561.373 133.2C557.907 138.8 554.04 143.333 549.773 146.8C545.64 150.267 541.773 152 538.173 152C532.84 152 528.773 149.933 525.973 145.8C523.307 141.667 521.973 135.8 521.973 128.2C521.973 117.533 523.173 106.667 525.573 95.6C519.307 95.6 513.107 95.6667 506.973 95.8C500.973 95.9333 495.107 96.1333 489.373 96.4C484.973 101.067 480.707 105.467 476.573 109.6C472.573 113.733 468.64 117.533 464.773 121C454.107 130.733 443.107 138.333 431.773 143.8C420.573 149.267 408.24 152 394.773 152C387.573 152 381.773 150.4 377.373 147.2C373.107 144 370.24 139.933 368.773 135C367.44 130.067 367.507 124.667 368.973 118.8C370.44 112.933 373.373 107.267 377.773 101.8C378.173 101.533 378.64 101.6 379.173 102C379.707 102.267 379.907 102.867 379.773 103.8C376.707 107.133 374.973 111 374.573 115.4C374.307 119.667 375.24 123.733 377.373 127.6C379.64 131.333 383.107 134.533 387.773 137.2C392.44 139.733 398.307 141 405.373 141C416.707 141 427.307 138.667 437.173 134C447.173 129.333 456.573 123 465.373 115C468.44 112.333 471.507 109.467 474.573 106.4C477.64 103.333 480.84 100.133 484.173 96.8C479.507 97.0667 475.107 97.4 470.973 97.8C466.84 98.0667 462.973 98.4667 459.373 99C458.707 98.8667 458.573 98.5333 458.973 98C459.373 97.4667 459.973 96.9333 460.773 96.4C461.573 95.7333 462.507 95.2 463.573 94.8C464.773 94.2667 465.907 93.9333 466.973 93.8C468.707 93.6667 471.373 93.6 474.973 93.6C478.707 93.4667 482.907 93.3333 487.573 93.2C495.04 85.4667 503.307 77.1333 512.373 68.2C521.573 59.1333 532.44 49.6667 544.973 39.8C536.04 36.8667 526.773 34.4667 517.173 32.6C507.707 30.6 498.573 29.6 489.773 29.6C479.773 29.6 471.573 32.4 465.173 38C458.773 43.4667 454.84 52.1333 453.373 64C453.107 64.6667 452.707 64.9333 452.173 64.8C451.773 64.6667 451.507 64.2667 451.373 63.6C452.973 50.5333 457.84 40.5333 465.973 33.6C474.107 26.6667 484.64 23.2 497.573 23.2C503.04 23.2 508.773 23.6 514.773 24.4C520.773 25.0667 526.64 26 532.373 27.2C538.24 28.2667 543.773 29.5333 548.973 31C554.307 32.3333 558.973 33.6667 562.973 35ZM526.173 93C528.307 83.4 531.307 74.0667 535.173 65C539.04 55.9333 543.773 47.6 549.373 40C537.64 49.4667 527.173 58.6667 517.973 67.6C508.773 76.5333 500.307 85.0667 492.573 93.2C498.973 93.0667 505.24 93 511.373 93C517.64 93 522.573 93 526.173 93ZM649.303 3.39999C651.303 3.39999 652.903 3.93333 654.103 5C655.436 5.93333 656.303 7.26666 656.703 8.99999C657.236 10.6 657.303 12.4667 656.903 14.6C656.636 16.7333 655.903 18.8667 654.703 21C654.436 21.2667 654.103 21.2667 653.703 21C653.303 20.7333 653.036 20.4 652.903 20C653.17 18.4 652.57 17.0667 651.103 16C649.77 14.9333 647.636 14.4 644.703 14.4C639.236 14.4 633.703 16.4667 628.103 20.6C622.636 24.6 617.303 29.9333 612.103 36.6C606.903 43.2667 602.036 50.9333 597.503 59.6C592.97 68.2667 589.036 77.2 585.703 86.4C582.37 95.6 579.703 104.733 577.703 113.8C575.836 122.867 574.903 131.133 574.903 138.6C574.903 142.6 576.036 144.6 578.303 144.6C579.903 144.6 581.436 143.933 582.903 142.6C584.503 141.267 586.303 139.267 588.303 136.6C588.703 136.333 589.036 136.4 589.303 136.8C589.703 137.067 589.836 137.467 589.703 138C587.036 142 583.903 145.333 580.303 148C576.703 150.667 573.436 152 570.503 152C567.97 152 566.17 151.267 565.103 149.8C564.17 148.333 563.703 146.467 563.703 144.2C563.703 137.933 565.036 130.133 567.703 120.8C570.37 111.333 573.903 101.4 578.303 91C582.836 80.4667 588.036 70 593.903 59.6C599.77 49.2 605.836 39.8667 612.103 31.6C618.503 23.2 624.903 16.4 631.303 11.2C637.703 5.99999 643.703 3.39999 649.303 3.39999ZM644.581 139.4C644.848 139.133 645.181 139.133 645.581 139.4C645.981 139.667 646.115 140.067 645.981 140.6C643.581 144.067 640.915 146.867 637.981 149C635.048 151 632.248 152 629.581 152C626.515 152 624.515 149.867 623.581 145.6C622.781 141.2 623.248 136 624.981 130C621.381 135.733 617.448 140.667 613.181 144.8C609.048 148.8 604.648 151.2 599.981 152C596.781 152 594.315 150.533 592.581 147.6C590.848 144.667 589.981 141.267 589.981 137.4C589.981 133 591.048 128.667 593.181 124.4C595.315 120 598.115 116.067 601.581 112.6C605.181 109.133 609.115 106.333 613.381 104.2C617.781 101.933 622.181 100.8 626.581 100.8C631.248 100.8 634.915 101.933 637.581 104.2C638.915 103.267 640.581 102.467 642.581 101.8C644.715 101.133 646.581 100.8 648.181 100.8C648.715 100.8 648.981 101.133 648.981 101.8C645.915 105.533 643.248 109.667 640.981 114.2C638.848 118.6 637.181 122.867 635.981 127C634.781 131 634.048 134.6 633.781 137.8C633.515 141 633.781 143.2 634.581 144.4C635.248 145.2 636.381 145.467 637.981 145.2C639.581 144.8 641.781 142.867 644.581 139.4ZM606.181 144.6C607.781 144.6 609.715 143.6 611.981 141.6C614.381 139.6 616.848 136.933 619.381 133.6C621.915 130.267 624.381 126.533 626.781 122.4C629.315 118.267 631.515 114.067 633.381 109.8C632.848 108.067 631.581 106.667 629.581 105.6C627.715 104.533 625.515 104 622.981 104C619.915 104 617.048 104.8 614.381 106.4C611.715 107.867 609.381 110 607.381 112.8C605.515 115.467 603.981 118.733 602.781 122.6C601.715 126.333 601.181 130.467 601.181 135C601.181 137.933 601.648 140.267 602.581 142C603.648 143.733 604.848 144.6 606.181 144.6ZM722.811 110C722.811 107.2 721.811 105.8 719.811 105.8C715.811 105.8 711.078 109.533 705.611 117C700.144 124.333 695.078 134.867 690.411 148.6C690.144 149.4 689.011 150.2 687.011 151C685.144 151.667 683.344 152 681.611 152C680.011 152 679.411 151.4 679.811 150.2C680.611 147.8 681.678 144.8 683.011 141.2C684.478 137.6 685.811 133.933 687.011 130.2C688.344 126.333 689.478 122.733 690.411 119.4C691.344 115.933 691.811 113.267 691.811 111.4C691.811 107.8 690.678 106 688.411 106C684.944 106 680.544 109.6 675.211 116.8C670.011 123.867 664.944 134.467 660.011 148.6C659.744 149.4 658.678 150.2 656.811 151C654.944 151.667 653.278 152 651.811 152C651.144 152 650.611 151.867 650.211 151.6C649.811 151.333 649.744 150.867 650.011 150.2C651.078 147.267 652.211 144.067 653.411 140.6C654.611 137 655.811 133.4 657.011 129.8C658.211 126.2 659.278 122.667 660.211 119.2C661.278 115.733 662.211 112.467 663.011 109.4C663.411 107 663.011 105.8 661.811 105.8C660.744 105.8 659.478 106.533 658.011 108C656.544 109.467 655.078 111.2 653.611 113.2C653.211 113.467 652.811 113.467 652.411 113.2C652.011 112.8 651.944 112.4 652.211 112C654.211 108.933 656.611 106.333 659.411 104.2C662.211 101.933 665.211 100.8 668.411 100.8C670.544 100.8 671.944 101.467 672.611 102.8C673.411 104.133 673.611 105.733 673.211 107.6C672.678 110.533 672.144 113 671.611 115C671.078 117 670.344 119.267 669.411 121.8C672.878 115.667 676.678 110.667 680.811 106.8C685.078 102.8 689.611 100.8 694.411 100.8C696.811 100.8 698.611 101.467 699.811 102.8C701.144 104.133 701.811 105.733 701.811 107.6C701.811 112.8 700.878 118.067 699.011 123.4C703.278 116.067 707.411 110.467 711.411 106.6C715.544 102.733 720.478 100.8 726.211 100.8C728.878 100.8 730.744 101.533 731.811 103C733.011 104.333 733.611 105.733 733.611 107.2C733.611 109.467 733.078 112 732.011 114.8C731.078 117.467 729.944 120.333 728.611 123.4C727.411 126.333 726.278 129.333 725.211 132.4C724.278 135.333 723.811 138.2 723.811 141C723.811 144.333 724.878 146 727.011 146C729.144 146 732.011 143.8 735.611 139.4C736.011 139.133 736.344 139.2 736.611 139.6C737.011 140 737.078 140.467 736.811 141C734.144 144.333 731.411 147 728.611 149C725.811 151 723.078 152 720.411 152C716.011 152 713.811 149.467 713.811 144.4C713.811 141.2 714.278 138 715.211 134.8C716.144 131.467 717.144 128.333 718.211 125.4C719.411 122.333 720.478 119.467 721.411 116.8C722.344 114.133 722.811 111.867 722.811 110Z" fill="black"/>
</svg>
